<svg xmlns="http://www.w3.org/2000/svg" width="24" height="21.004" viewBox="10 10 24 21.004"><path d="M20.394 21.91a5.448 5.448 0 0 0 .188.14c1.239.876 1.83 1.706 2.055 2.822a6.565 6.565 0 0 1 .111 1.291c0 2.287-2.166 4.84-6.173 4.84a10.079 10.079 0 0 1-3.197-.504C11.392 29.829 10 28.548 10 27.006a3.582 3.582 0 0 1 .9-2.27c1.1-1.324 3.103-2.293 5.414-2.293.277 0 .537-.008.796-.012a17.481 17.481 0 0 1 .301-.003 4.128 4.128 0 0 1-.154-.158 2.36 2.36 0 0 1-.707-1.6 1.993 1.993 0 0 1 .001-.066 2.703 2.703 0 0 1 .32-1.134 1.432 1.432 0 0 1-.104.004c-.079 0-.158-.006-.239-.01a3.697 3.697 0 0 0-.244-.012 5.491 5.491 0 0 1-1.067-.102 4.577 4.577 0 0 1-3.754-4.567c0-2.49 2.67-4.783 5.509-4.783h6.33l-1.417 1.5h-2.007a5.169 5.169 0 0 1 .019.01c.78.445 1.37 1.052 1.721 1.801a4.085 4.085 0 0 1 .37 1.75 3.24 3.24 0 0 1-.275 1.307 5.073 5.073 0 0 1-1.582 1.902c-.832.65-1.115.993-1.191 1.464a2.165 2.165 0 0 0-.024.347c0 .52.884 1.37 1.478 1.83ZM34 13.75h-3.75v-3.727h-1.5v3.727H25v1.524h3.75V19h1.5v-3.726H34V13.75ZM12.377 26.328a2.754 2.754 0 0 0 .655 1.789c.723.867 1.99 1.409 3.53 1.409a12.655 12.655 0 0 0 .557-.012c2.989-.132 4.049-1.349 4.049-3.092a2.856 2.856 0 0 0-.078-.653c-.266-1.042-1.207-1.56-2.52-2.471a33.258 33.258 0 0 1-.012-.009 5.065 5.065 0 0 0-.517-.138 5.404 5.404 0 0 0-1.057-.115 5.786 5.786 0 0 0-.062 0c-1.371 0-2.657.486-3.508 1.238a2.775 2.775 0 0 0-1.037 2.054Zm4.823-7.45c-1.63-.048-3.18-1.824-3.462-3.966a5.153 5.153 0 0 1-.041-.5c-.063-1.861.95-3.232 2.413-3.232a2.366 2.366 0 0 1 .07 0c1.361.041 2.715 1.245 3.29 2.887a5.121 5.121 0 0 1 .243 1.022c.282 2.142-.883 3.839-2.513 3.79Z" fill="rgba(0, 0, 0, 1)" fill-rule="evenodd" data-name="google plus"/></svg>