<svg xmlns="http://www.w3.org/2000/svg" width="24" height="24" viewBox="8 6 24 24"><path d="M27.5 30h-15A4.5 4.5 0 0 1 8 25.5v-15a4.5 4.5 0 0 1 1.5-3.354V25.5a3 3 0 0 0 3 3h15a3 3 0 0 0 3-3v-12h-6.35A6.121 6.121 0 0 0 20 11.88a6.121 6.121 0 0 0-4.15 1.621H14V6h13.5a4.5 4.5 0 0 1 4.5 4.5v15a4.5 4.5 0 0 1-4.5 4.5Zm-2.932-11.25A4.568 4.568 0 0 0 20 14.182a4.568 4.568 0 0 0-4.568 4.568A4.568 4.568 0 0 0 20 23.318a4.568 4.568 0 0 0 4.568-4.568Zm-1.522 0A3.046 3.046 0 0 0 20 15.704a3.046 3.046 0 0 0-3.046 3.046A3.046 3.046 0 0 0 20 21.797a3.046 3.046 0 0 0 3.046-3.047ZM12.5 6a4.5 4.5 0 0 0-1.5.257V13.5h1.5V6Zm14.25 2.25h1.5a1.5 1.5 0 0 1 1.5 1.5v.75a1.5 1.5 0 0 1-1.5 1.5h-1.5a1.5 1.5 0 0 1-1.5-1.5v-.75a1.5 1.5 0 0 1 1.5-1.5Z" fill="rgba(0, 0, 0, 1)" fill-rule="evenodd" data-name="Instagram"/></svg>