<svg xmlns="http://www.w3.org/2000/svg" width="24" height="24" viewBox="9 8.969 24 24"><path d="M21 8.969c-6.627 0-12 5.373-12 12 0 4.94 2.985 9.181 7.249 11.023-.031-.836-.001-1.834.21-2.738.234-.976 1.552-6.562 1.552-6.562s-.385-.77-.385-1.907c0-1.783 1.035-3.117 2.322-3.117 1.096 0 1.626.824 1.626 1.81 0 1.1-.703 2.747-1.065 4.272-.3 1.277.643 2.32 1.902 2.32 2.28 0 3.816-2.93 3.816-6.404 0-2.638-1.775-4.615-5.01-4.615-3.651 0-5.93 2.724-5.93 5.768 0 1.05.31 1.79.796 2.362.223.263.253.37.172.673-.059.22-.189.754-.244.967-.08.304-.328.411-.604.3-1.681-.687-2.467-2.53-2.467-4.6 0-3.423 2.886-7.525 8.608-7.525 4.6 0 7.625 3.329 7.625 6.898 0 4.727-2.627 8.255-6.498 8.255-1.3 0-2.525-.703-2.941-1.5 0 0-.702 2.772-.848 3.31-.253.915-.74 1.829-1.191 2.549 1.048.3 2.157.46 3.305.46 6.627 0 12-5.372 12-12 0-6.626-5.373-12-12-12Z" fill="rgba(0, 0, 0, 1)" fill-rule="evenodd" data-name="pinterest"/></svg>