<svg xmlns="http://www.w3.org/2000/svg" width="24" height="20" viewBox="9 12 24 20"><path d="M33 14.403c-.404.228-1.617.686-2.746.8.725-.402 1.797-1.715 2.063-2.759-.698.458-2.299 1.124-3.088 1.124v.001A4.881 4.881 0 0 0 25.65 12c-2.734 0-4.951 2.275-4.951 5.078 0 .39.044.77.125 1.134-3.71-.1-7.766-2.007-10.208-5.27-1.501 2.665-.202 5.63 1.502 6.71-.583.045-1.657-.069-2.162-.575-.034 1.77.795 4.113 3.82 4.964-.583.321-1.614.228-2.062.16.157 1.494 2.196 3.446 4.426 3.446-.795.943-3.785 2.653-7.14 2.109C11.279 31.177 13.934 32 16.745 32c7.988 0 14.192-6.64 13.858-14.831-.002-.009-.002-.018-.002-.028l.002-.064c0-.025-.002-.05-.003-.074a8.67 8.67 0 0 0 2.4-2.6Z" fill="rgba(0, 0, 0, 1)" fill-rule="evenodd" data-name="twitter"/></svg>